<svg height="512" viewBox="0 0 57 60" width="512" xmlns="http://www.w3.org/2000/svg"><g id="Page-1" fill="none" fill-rule="evenodd"><g id="035---Edit-Image" fill-rule="nonzero"><g id="color" transform="translate(1 1)"><path id="Shape" d="m52 8v22.06c-1.0857605-1.6451496-2.4375296-3.0983015-4-4.3v-17.76c0-2.209139-1.790861-4-4-4h-36c-2.209139 0-4 1.790861-4 4v28c0 2.209139 1.790861 4 4 4h11c0 9.9411255 8.0588745 18 18 18h-29c-4.418278 0-8-3.581722-8-8v-42c0-4.418278 3.581722-8 8-8h36c4.418278 0 8 3.581722 8 8z" fill="#f5f5f5"/><path id="Shape" d="m19 40h-3c0 9.9411255 8.0588745 18 18 18h3c-9.9411255 0-18-8.0588745-18-18z" fill="#cfd8dc"/><path id="Shape" d="m44 0h-3c4.418278 0 8 3.581722 8 8v18.6c1.1457712 1.0183984 2.1542287 2.1814861 3 3.46v-22.06c0-4.418278-3.581722-8-8-8z" fill="#cfd8dc"/><path id="Shape" d="m48 8v14l-11.79-11.79c-.1877666-.1893127-.4433625-.29579832-.71-.29579832s-.5222334.10648562-.71.29579832l-12.61 12.61-2.47 2.47c-.1877666.1893127-.4433625.2957983-.71.2957983s-.5222334-.1064856-.71-.2957983l-2.08-2.08c-.1877666-.1893127-.4433625-.2957983-.71-.2957983s-.5222334.1064856-.71.2957983l-10.79 10.79v-26c0-2.209139 1.790861-4 4-4h36c2.209139 0 4 1.790861 4 4z" fill="#02a9f4"/><path id="Shape" d="m44 4h-3c2.209139 0 4 1.790861 4 4v11l3 3v-14c0-2.209139-1.790861-4-4-4z" fill="#0377bc"/><path id="Shape" d="m48 22v3.76c-6.6649893-5.1466872-16.0074621-4.984679-22.49.39-.21.17-.41.35-.61.53-3.7641277 3.4042023-5.9082569 8.2448466-5.9 13.32h-11c-2.209139 0-4-1.790861-4-4v-2l10.79-10.79c.1877666-.1893127.4433625-.2957983.71-.2957983s.5222334.1064856.71.2957983l2.08 2.08c.1877666.1893127.4433625.2957983.71.2957983s.5222334-.1064856.71-.2957983l2.47-2.47 12.61-12.61c.1877666-.1893127.4433625-.29579832.71-.29579832s.5222334.10648562.71.29579832z" fill="#a4c400"/><path id="Shape" d="m36.21 10.21c-.1877666-.1893127-.4433625-.29579832-.71-.29579832s-.5222334.10648562-.71.29579832l-.79.79 11 11v1.89c1.058466.5242308 2.0632306 1.1505341 3 1.87v-3.76z" fill="#90ac00"/><path id="Shape" d="m34 22c-4.1981541-.0068666-8.2651622 1.4620702-11.49 4.15-.21.17-.41.35-.61.53-3.7641277 3.4042023-5.9082569 8.2448466-5.9000238 13.32h3.0000238c-.0082569-5.0751534 2.1358723-9.9157977 5.9-13.32.2-.18.4-.36.61-.53 2.8313643-2.3611346 6.3250216-3.7865468 10-4.08-.51-.07-.99-.07-1.51-.07z" fill="#90ac00"/><path id="Shape" d="m55 40c.0028842 8.2553202-5.6102249 15.4543897-13.6170768 17.4645245-8.0068519 2.0101349-16.3547213-1.6840053-20.2514464-8.9617696-3.8967252-7.2777643-2.3432984-16.2733444 3.7685232-21.8227549.2-.18.4-.36.61-.53 5.3694298-4.4526686 12.8280353-5.4022192 19.1418402-2.4369362 6.3138048 2.965283 10.3459585 9.3114771 10.3481598 16.2869362z" fill="#ffeb3a"/><path id="Shape" d="m52 30.06c-3.3326691-5.0313741-8.9649852-8.0578053-15-8.06-.49 0-1 0-1.46.07 9.2663382.8485511 16.3585449 8.6198905 16.3585449 17.925s-7.0922067 17.0764489-16.3585449 17.925c.4850654.0505281.9723179.0772269 1.46.08 6.6275346-.0024096 12.7176119-3.6465997 15.8524943-9.4858406 3.1348823-5.8392408 2.8073783-12.9288039-.8524943-18.4541594z" fill="#fdd834"/><circle id="Oval" cx="13" cy="13" fill="#ffeb3a" r="4"/><path id="Shape" d="m33.52 48.44-4.8 1c-.3326392.0724924-.6793078-.0292278-.92004-.26996s-.3424524-.5874008-.26996-.92004l1-4.8c2.7614237 0 5 2.2385763 5 5z" fill="#607d8b"/><path id="Shape" d="m43.39 46.33-9.86 2.1c0-2.7614237-2.2385763-5-5-5l2.1-9.86 6.33.73.73 4.93 4.93.73z" fill="#ffe0b2"/><path id="Shape" d="m42.66 40-4.93-.73-.73-4.93-6.33-.73-.07.33 3.41.39.73 4.93 4.93.73.73 6.33-6.93 1.47c.0381132.2080935.0615045.4186156.07.63l9.86-2.1z" fill="#dfc49c"/><path id="Shape" d="m43.66 27.68-6.66 6.66-6.33-.73 7.55-7.55c1.9061597.1563504 3.7588475.7080699 5.44 1.62z" fill="#f44335"/><path id="Shape" d="m49.32 33.34-6.66 6.66-4.93-.73-.73-4.93 6.66-6.66c2.3924397 1.3021323 4.3578677 3.2675603 5.66 5.66z" fill="#c81e1e"/><path id="Shape" d="m50.94 38.78-7.55 7.55-.73-6.33 6.66-6.66c.9119301 1.6811525 1.4636496 3.5338403 1.62 5.44z" fill="#f44335"/></g><g id="outline" fill="#000"><path id="Shape" d="m54 9c0-4.97056275-4.0294373-9-9-9h-36c-4.97056275 0-9 4.02943725-9 9v42c0 4.9705627 4.02943725 9 9 9h29c6.932405-.008609 13.3098749-3.7921949 16.6402611-9.8722312 3.3303861-6.0800362 3.0850026-13.4913406-.6402611-19.3377688zm-45 49c-3.86599325 0-7-3.1340068-7-7v-42c0-3.86599325 3.13400675-7 7-7h36c3.8659932 0 7 3.13400675 7 7v19.2c-.6168689-.6868491-1.2854953-1.3253874-2-1.91v-17.29c0-2.76142375-2.2385763-5-5-5h-36c-2.76142375 0-5 2.23857625-5 5v28c0 2.7614237 2.23857625 5 5 5h10.05c.2037025 4.0250913 1.689412 7.8795264 4.24 11h-4.29c-.5522847 0-1 .4477153-1 1s.4477153 1 1 1h6.2c1.3105564 1.1977398 2.7813089 2.2074097 4.37 3zm10.05-18h-10.05c-1.65685425 0-3-1.3431458-3-3v-1.59l10.5-10.5 2.09 2.09c.7800749.7754472 2.0399251.7754472 2.82 0l15.09-15.09 11.5 11.5v1.46c-5.6981973-3.5517377-12.8504423-3.8229335-18.801238-.7128976-5.9507958 3.1100359-9.8115219 9.1368882-10.148762 15.8428976zm28.95-19.41-10.09-10.09c-.7800749-.77544719-2.0399251-.77544719-2.82 0l-15.09 15.09-2.09-2.09c-.7800749-.7754472-2.0399251-.7754472-2.82 0l-9.09 9.09v-23.59c0-1.65685425 1.34314575-3 3-3h36c1.6568542 0 3 1.34314575 3 3zm-10 37.41c-9.3888407 0-17-7.6111593-17-17s7.6111593-17 17-17 17 7.6111593 17 17-7.6111593 17-17 17z"/><path id="Shape" d="m13 53h-3c-.55228475 0-1 .4477153-1 1s.44771525 1 1 1h3c.5522847 0 1-.4477153 1-1s-.4477153-1-1-1z"/><path id="Shape" d="m14 9c-2.7614237 0-5 2.2385763-5 5s2.2385763 5 5 5 5-2.2385763 5-5c0-1.3260824-.5267842-2.597852-1.4644661-3.5355339s-2.2094515-1.4644661-3.5355339-1.4644661zm0 8c-1.6568542 0-3-1.3431458-3-3s1.3431458-3 3-3 3 1.3431458 3 3-1.3431458 3-3 3z"/><path id="Shape" d="m45.14 27.8c-1.8050079-.9785456-3.793766-1.5710866-5.84-1.74-.2931698-.0242358-.5821394.0818416-.79.29l-7.58 7.58c-.126342.1272488-.2161438.2861288-.26.46l-3.11 14.68c-.139696.6616866.0644544 1.3491523.5426511 1.8273489.4781966.4781967 1.1656623.6823471 1.8273489.5426511l14.67-3.12c.1879842-.0471421.3582193-.1478934.49-.29l7.55-7.55c.2081584-.2078606.3142358-.4968302.29-.79-.1689134-2.046234-.7614544-4.0349921-1.74-5.84-1.3916568-2.5574381-3.4925619-4.6583432-6.05-6.05zm3.93 6.38-5.76 5.76-3.7-.55-.55-3.7 5.76-5.75c1.7280689 1.0623911 3.183541 2.5144386 4.25 4.24zm-9.48-6.08c1.172485.1425985 2.3198552.4454235 3.41.9l-5.32 5.31-3.79-.43zm-10.07 21.39.84-3.91c1.5446532.3286473 2.7513527 1.5353468 3.08 3.08zm5.87-1.25c-.4909781-2.3236552-2.3063448-4.1390219-4.63-4.63l1.69-7.9 4.67.54.62 4.17c.0653315.4339936.4060064.7746685.84.84l4.17.62.54 4.67zm9.75-3.08-.43-3.79 5.29-5.32c.4433453 1.0752472.739357 2.2054736.88 3.36z"/></g></g></g></svg>